<?xml version="1.0" standalone="no"?>
<!DOCTYPE svg PUBLIC "-//W3C//DTD SVG 20010904//EN"
 "http://www.w3.org/TR/2001/REC-SVG-20010904/DTD/svg10.dtd">
<svg version="1.0" xmlns="http://www.w3.org/2000/svg"
 width="1280.000000pt" height="1280.000000pt" viewBox="0 0 1280.000000 1280.000000"
 preserveAspectRatio="xMidYMid meet">

<g transform="translate(0.000000,1280.000000) scale(0.100000,-0.100000)"
fill="#000000" stroke="none">
<path d="M3372 9581 c-64 -22 -117 -70 -146 -131 l-21 -45 -3 -1299 c-3 -1458
-7 -1369 69 -1451 27 -29 60 -51 96 -65 54 -20 65 -20 1366 -18 l1312 3 40 22
c47 25 95 74 121 123 18 34 19 89 22 1347 2 1301 2 1312 -18 1366 -14 36 -36
69 -64 95 -83 76 5 72 -1435 72 -1221 -1 -1289 -2 -1339 -19z m2478 -1496 l0
-1135 -1135 0 -1135 0 0 1135 0 1135 1135 0 1135 0 0 -1135z"/>
<path d="M4558 8465 l-3 -220 -220 -5 -220 -5 0 -150 0 -150 220 -5 220 -5 3
-222 2 -223 155 0 155 0 2 223 3 222 223 3 222 2 0 155 0 155 -222 2 -223 3
-5 220 -5 220 -152 0 -153 0 -2 -220z"/>
<path d="M6742 9581 c-69 -24 -126 -80 -152 -149 -20 -53 -20 -73 -18 -1365 3
-1257 4 -1313 22 -1347 30 -58 87 -109 143 -130 53 -20 80 -20 1348 -20 1278
0 1295 0 1349 20 35 14 68 36 95 65 76 82 72 -7 69 1451 l-3 1299 -21 45 c-26
54 -75 103 -129 127 -38 17 -112 18 -1345 20 -1247 2 -1307 2 -1358 -16z
m2478 -1496 l0 -1135 -1135 0 -1135 0 0 1135 0 1135 1135 0 1135 0 0 -1135z"/>
<path d="M7480 8085 l0 -155 603 0 602 0 0 155 0 155 -602 0 -603 0 0 -155z"/>
<path d="M3363 6209 c-32 -12 -66 -36 -92 -64 -76 -82 -72 7 -69 -1451 3
-1294 3 -1299 24 -1344 25 -54 87 -113 140 -131 32 -12 265 -14 1349 -14 1479
0 1364 -6 1443 79 77 84 73 -16 70 1452 -3 1255 -4 1310 -22 1344 -26 49 -74
98 -121 123 l-40 22 -1315 2 c-1291 2 -1316 2 -1367 -18z m2487 -1494 l0
-1135 -1135 0 -1135 0 0 1135 0 1135 1135 0 1135 0 0 -1135z"/>
<path d="M4292 5137 l-112 -112 155 -155 155 -155 -155 -155 -155 -155 113
-113 112 -112 155 155 155 155 155 -155 155 -155 113 113 112 112 -155 155
-155 155 157 157 158 158 -113 112 -112 113 -157 -158 -158 -157 -155 155
-155 155 -113 -113z"/>
<path d="M6740 6211 c-37 -13 -68 -34 -97 -64 -78 -83 -73 8 -73 -1432 0
-1435 -4 -1348 71 -1430 80 -86 -37 -80 1449 -80 l1315 0 47 23 c53 26 102 77
127 131 14 33 16 159 16 1351 0 1088 -2 1322 -14 1354 -18 53 -77 115 -131
140 -45 21 -50 21 -1350 23 -1260 2 -1307 2 -1360 -16z m2480 -1496 l0 -1135
-1135 0 -1135 0 0 1135 0 1135 1135 0 1135 0 0 -1135z"/>
<path d="M7490 4955 l0 -155 595 0 595 0 0 155 0 155 -595 0 -595 0 0 -155z"/>
<path d="M7488 4475 l3 -155 594 0 595 0 0 155 0 155 -597 0 -598 0 3 -155z"/>
</g>
</svg>
